# Blender v2.79 (sub 0) OBJ File: 'box.blend'
# www.blender.org
o Cube
v -0.500000 0.003030 -1.001605
v 0.500000 0.005773 -0.973918
v -0.500000 0.010645 0.881895
v 0.487803 -0.007382 0.876505
v -0.851103 0.100963 0.491703
v -0.884414 -0.002957 -0.502109
v 0.852753 0.092654 0.482674
v 0.829625 0.018180 -0.487360
v -0.007493 1.151809 0.380095
v -0.010593 1.058064 -0.590928
v 0.010593 1.179996 0.372708
v 0.004393 1.058064 -0.581629
v -0.485837 1.077034 -0.079822
v -0.485837 1.068753 -0.128848
v 0.485837 1.078224 -0.079882
v 0.485837 1.068753 -0.112007
v -0.488403 0.255993 0.476362
v -0.500000 0.254320 0.464859
v -0.500000 1.130041 0.378117
v -0.499653 1.129716 0.378156
v -0.500000 0.152704 -0.506661
v -0.488403 0.151600 -0.518206
v -0.500000 1.045856 -0.595130
v -0.499657 1.045435 -0.595107
v 0.503572 0.294326 0.462223
v 0.492019 0.295429 0.473751
v 0.499826 1.142056 0.376934
v 0.488403 0.160226 -0.519061
v 0.500042 0.161898 -0.507572
v 0.500000 1.046000 -0.595144
v 0.499668 1.045416 -0.595106
v -0.488403 1.122699 0.390498
v -0.496539 1.044366 -0.599768
v -0.494185 1.042305 -0.602070
v 0.495555 1.142488 0.381228
v 0.488439 1.134799 0.389313
v 0.488403 1.036372 -0.605845
v 0.495478 1.043520 -0.602495
v -0.494201 0.043172 -0.811179
v 0.494201 0.069254 -0.746489
v -0.490881 0.136685 0.656917
v 0.489911 0.130685 0.675128
v 0.184310 1.143833 0.374821
v -0.284923 1.162368 0.378981
v -0.286277 1.060043 -0.593295
vn -0.0157 0.9919 -0.1260
vn 0.0099 0.9953 -0.0966
vn 0.2204 0.9701 -0.1019
vn -0.0002 0.9606 -0.2779
vn -0.0065 0.9652 -0.2614
vn 0.0030 0.9785 -0.2064
vn -0.0426 -0.9944 0.0972
vn -0.0964 -0.9892 0.1100
vn -0.2037 -0.9710 0.1254
vn 0.0049 0.8502 0.5264
vn -0.0015 0.8330 0.5533
vn -0.0157 0.8044 0.5938
vn 0.0019 0.9987 -0.0516
vn -0.0011 0.9987 -0.0514
vn -0.1124 0.9928 -0.0410
vn 0.0568 -0.9933 0.1009
vn -0.0133 -0.9946 0.1032
vn -0.0382 -0.9946 0.0961
vn 0.9441 -0.1084 -0.3113
vn 0.9262 0.0406 0.3749
vn 0.9193 -0.0388 -0.3917
vn -0.9503 0.0307 0.3099
vn -0.9239 -0.0383 -0.3808
vn -0.9259 0.0372 0.3759
vn 0.0967 0.9945 -0.0394
vn 0.7189 0.6051 0.3422
vn 0.4915 0.8609 0.1314
vn 0.4802 0.8726 -0.0889
vn 0.4279 0.8966 -0.1138
vn 0.4030 0.9066 -0.1253
vn 0.3785 0.0939 0.9208
vn -0.0008 0.1039 0.9946
vn -0.0013 0.0986 0.9951
vn -0.3403 0.2761 -0.8989
vn -0.9509 -0.0463 -0.3059
vn 0.3047 0.3611 0.8813
vn 0.9250 0.0427 0.3775
vn 0.6796 0.6993 -0.2216
vn 0.6382 0.7546 -0.1526
vn -0.3834 -0.0903 -0.9192
vn 0.3066 0.0904 -0.9475
vn 0.3768 -0.0913 -0.9218
vn -0.8096 0.4818 0.3354
vn -0.5810 0.8046 0.1230
vn -0.3818 0.9202 -0.0866
vn -0.3970 0.9132 -0.0923
vn -0.4046 0.9096 -0.0951
vn 0.5617 0.2935 0.7735
vn 0.0019 0.7435 -0.6687
vn -0.7071 0.0697 0.7037
vn -0.7076 0.0697 0.7032
vn -0.0030 0.9364 -0.3508
vn -0.0075 0.9475 -0.3198
vn -0.0091 0.8251 0.5649
vn -0.0294 0.7738 0.6327
vn -0.0186 -0.9954 0.0944
vn 0.1363 -0.9855 0.1010
vn 0.0347 -0.9947 0.0966
vn -0.0268 0.9901 -0.1374
vn -0.0377 0.9898 -0.1372
vn 0.0186 0.8719 0.4892
vn 0.5020 0.8613 -0.0781
vn -0.7952 -0.3825 -0.4705
vn 0.7441 -0.6201 -0.2486
vn -0.3749 0.9233 -0.0840
vn -0.0021 0.4260 -0.9047
vn -0.0085 0.9284 -0.3716
vn -0.0063 -0.9951 0.0983
vn 0.0653 -0.9942 0.0860
s 1
f 15//1 13//2 32//3
f 39//4 2//5 1//6
f 12//7 43//8 11//9
f 41//10 4//11 42//12
f 14//13 16//14 38//15
f 44//16 10//17 9//18
f 30//19 25//20 29//21
f 19//22 21//23 18//24
f 33//25 23//26 24//27
f 25//28 8//29 29//30
f 26//31 32//32 17//33
f 34//34 21//23 23//35
f 36//36 25//20 27//37
f 19//38 32//3 20//39
f 22//40 37//41 28//42
f 30//43 38//15 31//44
f 29//21 28//42 37//41
f 21//45 5//46 18//47
f 35//48 32//32 36//36
f 33//49 37//41 34//34
f 32//50 18//24 17//51
f 22//52 40//53 39//4
f 17//54 42//12 26//55
f 30//56 43//8 12//7
f 19//57 45//58 44//16
f 13//2 20//39 32//3
f 32//3 35//59 15//1
f 35//59 27//60 15//1
f 39//4 40//53 2//5
f 41//10 3//61 4//11
f 16//14 31//44 38//15
f 38//15 33//25 14//13
f 33//25 24//27 14//13
f 44//16 45//58 10//17
f 30//19 27//37 25//20
f 19//22 23//35 21//23
f 25//28 7//62 8//29
f 26//31 36//36 32//32
f 23//35 33//63 34//34
f 34//34 22//40 21//23
f 27//37 35//48 36//36
f 36//36 26//31 25//20
f 22//40 34//34 37//41
f 38//64 30//19 37//41
f 30//19 29//21 37//41
f 21//45 6//65 5//46
f 33//49 38//66 37//41
f 32//50 19//22 18//24
f 22//52 28//67 40//53
f 17//54 41//10 42//12
f 30//56 27//68 43//8
f 19//57 23//69 45//58
